
<svg xmlns="http://www.w3.org/2000/svg" width="15.629" height="18.798" viewBox="0 0 15.629 18.798">
  <path id="Icon_metro-attachment" data-name="Icon metro-attachment" d="M14.591,7.932,13.458,6.74,7.792,12.7a2.624,2.624,0,0,0,0,3.577,2.321,2.321,0,0,0,3.4,0l6.8-7.154a4.372,4.372,0,0,0,0-5.961,3.866,3.866,0,0,0-5.665,0L5.187,10.675l-.015.016a6.1,6.1,0,0,0,0,8.314,5.394,5.394,0,0,0,7.9,0l.014-.016h0l4.872-5.127L16.827,12.67,11.954,17.8l-.015.015a3.851,3.851,0,0,1-5.636,0,4.354,4.354,0,0,1,0-5.929l.015-.016h0l7.139-7.511a2.322,2.322,0,0,1,3.4,0,2.627,2.627,0,0,1,0,3.577l-6.8,7.154a.774.774,0,0,1-1.133,0,.875.875,0,0,1,0-1.192l5.666-5.962Z" transform="translate(-3.535 -1.928)" fill="#404040"/>
</svg>
