<svg xmlns="http://www.w3.org/2000/svg" xmlns:xlink="http://www.w3.org/1999/xlink" width="965.635" height="557" viewBox="0 0 965.635 557">
  <defs>
    <clipPath id="clip-path">
      <path id="Path_39" data-name="Path 39" d="M698.805,615.281l-12.869,47.194-53.983,32.8a208.132,208.132,0,0,0-63.96,1.755l-2.678.62a21.726,21.726,0,0,0-16.135,15.728l-14.478,56a14.795,14.795,0,0,0,18.356,17.939l-.968,10.966a11.127,11.127,0,0,0,11.178,12.106l89.51-.765A11.127,11.127,0,0,0,663.712,797l-9.3-68.742,51.894-39.59a19.1,19.1,0,0,0,7.21-11.739c2-10.893,5.843-32.181,8.812-51.029Z" transform="translate(-534.233 -615.281)" fill="none"/>
    </clipPath>
  </defs>
  <g id="Group_250" data-name="Group 250" transform="translate(-336.42 -230.801)">
    <g id="Group_225" data-name="Group 225" transform="translate(346.174 582.986)">
      <g id="Group_223" data-name="Group 223" transform="translate(523.536)">
        <path id="Path_10" data-name="Path 10" d="M1997.683,1222.157h-56.527v-30.782h56.527Zm-55.061-1.467h53.594v-27.849h-53.594Z" transform="translate(-1886.086 -1191.375)" fill="#d2d2d2"/>
        <path id="Path_11" data-name="Path 11" d="M1847.48,1222.157h-56.527v-30.782h56.527Zm-55.061-1.467h53.594v-27.849h-53.594Z" transform="translate(-1790.953 -1191.375)" fill="#d2d2d2"/>
      </g>
      <g id="Group_224" data-name="Group 224" transform="translate(0 24.197)">
        <path id="Path_12" data-name="Path 12" d="M569.756,1288.153H513.229v-30.782h56.527Zm-55.06-1.467h53.594v-27.849H514.7Z" transform="translate(-458.158 -1257.371)" fill="#d2d2d2"/>
        <path id="Path_13" data-name="Path 13" d="M419.552,1288.153H363.025v-30.782h56.527Zm-55.061-1.467h53.594v-27.849H364.492Z" transform="translate(-363.025 -1257.371)" fill="#d2d2d2"/>
      </g>
    </g>
    <g id="Group_226" data-name="Group 226" transform="translate(516.316 230.801)">
      <path id="Path_14" data-name="Path 14" d="M2173.026,669.234a134.678,134.678,0,1,0-214.873,108.2v87.745h160.39V777.438A134.478,134.478,0,0,0,2173.026,669.234Z" transform="translate(-1508.948 -423.187)" fill="#ffd966"/>
      <rect id="Rectangle_1222" data-name="Rectangle 1222" width="160.389" height="70.941" transform="translate(449.205 485.447)"/>
      <path id="Path_15" data-name="Path 15" d="M1354.305,672.693c-.48-15.777-.733-29.151-.98-42.085-.245-12.908-.5-26.257-.975-41.995-.075-2.421,5.852-5.162,16.815-9.371,1.918-.735,3.432-1.316,4.136-1.658,14.979-7.251,24.322-19.185,29.715-38.23a35.8,35.8,0,0,1-20.645,9.076,25.209,25.209,0,0,1-1.458,2.382c-5.128,7.439-13.9,12.121-22.361,11.963-13.14-.268-26.537-9.129-36.755-24.31a63.36,63.36,0,0,1-5.538-9.881q-1.4-.4-2.8-.894c-15.721-5.517-27.9-18.1-31.79-32.828a40.166,40.166,0,0,1,6.032-33.2c-12.319.1-24.4-1.659-35.406-8.341-27.823-16.9-45.826-47.91-61.711-75.273l-1.876-3.231c-7.631-13.122-14.141-27.769-21.033-43.276-15.072-33.911-30.659-68.977-59.135-88.793-13.6-9.466-30.439-12.853-47.414-9.538a69.683,69.683,0,0,0-44.879,30.1c-7.359,11.308-11.951,24.548-16.393,37.352-10.219,29.465-19.849,57.283-61.095,56.216-10.508-.276-23.5-3.422-37.256-6.752-26.249-6.355-56-13.558-73.748-1.089l-.675-.96c18.181-12.776,48.208-5.505,74.7.908,13.693,3.316,26.627,6.448,37.011,6.72,40.35,1.061,49.881-26.379,59.956-55.428,4.464-12.871,9.08-26.18,16.517-37.608a70.867,70.867,0,0,1,45.637-30.615c17.284-3.376,34.443.077,48.309,9.727,28.745,20,44.4,55.22,59.536,89.278,6.88,15.477,13.376,30.1,20.976,43.163l1.877,3.232c15.813,27.242,33.735,58.118,61.305,74.859,11.026,6.7,23.2,8.385,35.687,8.155a33.466,33.466,0,0,1,8.265-7.591,30.647,30.647,0,0,1,8.29-3.7q.318-1.344.729-2.664a37.126,37.126,0,0,1-5.117-11.25c-2.26-8.626-1.039-16.971,3.436-23.5,6.843-9.982,20.688-15.469,37.808-15.031a99.047,99.047,0,0,1,78.04,42.424c10.256,15,14.371,30.913,11.587,44.811-2.168,10.812-8.9,20.933-18.366,28.345a35.119,35.119,0,0,1-8.568,25.344c-5.391,20.566-15.05,33.316-30.881,40.979-.749.363-2.283.951-4.226,1.7-4.827,1.853-16.126,6.191-16.065,8.24.478,15.745.732,29.1.977,42.008.247,12.931.5,26.3.979,42.074Zm-36.579-143.709a63.519,63.519,0,0,0,5.046,8.825c10,14.862,23.053,23.534,35.8,23.792,7.986.173,16.537-4.441,21.371-11.455q.548-.793,1.014-1.6a36.9,36.9,0,0,1-6.64-.162q-1.527-.176-2.986-.473a23.809,23.809,0,0,1-3.7,2.091c-9.8,4.4-22.335,3.327-34.383-2.949-7.124-3.709-13.278-10.349-11.9-17.251a.4.4,0,0,1-.034-.035Q1319.522,529.445,1317.726,528.984Zm4.66,1.9c-.562,6.007,5.2,11.9,11.4,15.134,11.727,6.107,23.886,7.171,33.36,2.917a22.131,22.131,0,0,0,2.6-1.383,28.3,28.3,0,0,1-10.164-4.8q-1.612.374-3.254.609C1344.292,545.059,1331.453,540.01,1322.387,530.882Zm50.242,16.079q.9.153,1.826.259a35.913,35.913,0,0,0,7.168.1,17.054,17.054,0,0,0,.868-14.3c-.15-.374-.315-.742-.49-1.106a22.869,22.869,0,0,1-1.048,3.706A26.313,26.313,0,0,1,1372.629,546.961Zm9.657-17.011a20.929,20.929,0,0,1,1.293,2.634,18.049,18.049,0,0,1-.584,14.6,34.142,34.142,0,0,0,20.3-9.746c.112-.116.224-.234.333-.351q.6-2.309,1.128-4.753,1.793-8.3,2.705-16.02a57.361,57.361,0,0,1-9.559,4.606,50.093,50.093,0,0,1-12.21,2.827,42.739,42.739,0,0,1-3.318,4.636C1382.369,528.9,1382.338,529.424,1382.286,529.95Zm-21.221,12.425a27.84,27.84,0,0,0,10.013,4.285,25.113,25.113,0,0,0,8.775-11.449,21.352,21.352,0,0,0,1.224-5c-.038-.065-.077-.129-.118-.194A42.237,42.237,0,0,1,1361.066,542.375Zm-37.836-12.3c8.811,8.867,21.254,13.778,32.936,12.119q1.13-.159,2.244-.389a24.6,24.6,0,0,1-5.139-6.087,21.348,21.348,0,0,1-3.118-10.317C1342.511,529.809,1332.973,531.439,1323.23,530.076Zm28.089-5.378a19.979,19.979,0,0,0,2.957,10.419,23.512,23.512,0,0,0,5.583,6.36A40.935,40.935,0,0,0,1380.308,529a56.429,56.429,0,0,0-4.116-5.219,33.485,33.485,0,0,1-16.939-6.236,29.212,29.212,0,0,1-4.829,4.939A33.33,33.33,0,0,1,1351.32,524.7Zm57.416-9.176a169.691,169.691,0,0,1-2.83,17.058q-.273,1.259-.563,2.485a34.3,34.3,0,0,0,6.79-21.884Q1410.483,514.407,1408.736,515.521Zm-85.905,13.311c9.935,1.508,19.683-.168,27.342-4.8a14.957,14.957,0,0,1,1.414-5.719,12.181,12.181,0,0,1,3.68-4.463q-.507-.575-.985-1.188c-3.7-4.726-5.593-10.341-6.8-16.206a50.045,50.045,0,0,1-8.208.766,15.428,15.428,0,0,1,2.94,3.276c2.5,3.763,2.882,8.058,1.005,11.489-2.141,3.916-6.292,6.056-10.307,8.127-4.4,2.265-8.547,4.407-10.052,8.652C1322.846,528.786,1322.839,528.809,1322.83,528.832Zm-8.49-11.942c.141.332.285.663.436,1a41.542,41.542,0,0,0,6.939,10.584l.035-.1c1.66-4.683,6.216-7.032,10.621-9.3,3.859-1.988,7.847-4.044,9.816-7.646,1.687-3.086,1.339-6.831-.954-10.276a14.344,14.344,0,0,0-3.973-3.971,31.355,31.355,0,0,1-9.352-1.853c-8.03,1.774-13.184,10.282-13.612,18.047A26.619,26.619,0,0,0,1314.34,516.891Zm2.776,10.717q1.458.4,2.917.713a42.915,42.915,0,0,1-5.1-7.473A38.074,38.074,0,0,0,1317.116,527.608Zm60.736-3.694a51.534,51.534,0,0,1,3.252,4.168c.036-.041.07-.083.1-.125a17.688,17.688,0,0,0-.445-3.956C1379.8,523.986,1378.82,523.974,1377.852,523.914Zm-88.683-62.272a38.918,38.918,0,0,0-6.368,32.921c3.791,14.361,15.687,26.631,31.046,32.019q.911.32,1.826.6a35.036,35.036,0,0,1-2.488-10.017c-4.339-10.5-3.3-21.1,2.668-29.781q-1.437-1.434-2.853-3.122a39.616,39.616,0,0,1-8.924-23.623C1299.106,461.135,1294.118,461.533,1289.17,461.643Zm92.793,62.343a18.7,18.7,0,0,1,.37,2.574q1-1.306,1.9-2.688Q1383.1,523.955,1381.962,523.986Zm-25.9-9.269a11.012,11.012,0,0,0-3.423,4.1,13.471,13.471,0,0,0-1.233,4.421q1.177-.786,2.279-1.672a28.2,28.2,0,0,0,4.647-4.751A27.147,27.147,0,0,1,1356.066,514.717Zm20.715,7.949q1.828.163,3.669.17a16.147,16.147,0,0,0-.779-2.038,15.373,15.373,0,0,0-9.7-7.9c1.432,3.525,3.976,6.477,6.648,9.576C1376.673,522.539,1376.728,522.6,1376.781,522.665Zm-7.291-11.112c5.031,1.277,9.279,4.488,11.247,8.751a17.423,17.423,0,0,1,.935,2.521q1.67-.036,3.329-.189a39.048,39.048,0,0,0,4.39-10.532,41.317,41.317,0,0,0-1.3-23.545,40.794,40.794,0,0,0-6.589.059c-10.088,5.09-14.193,15.3-12.118,22.586C1369.419,511.322,1369.454,511.438,1369.49,511.554Zm19.88-22.873a42.415,42.415,0,0,1,1.157,23.71,39.975,39.975,0,0,1-4.081,10.091,48.883,48.883,0,0,0,11.051-2.667,56.278,56.278,0,0,0,10.134-4.983c.055-.5.106-1,.153-1.505a10.849,10.849,0,0,1-8.43,2.584l-.453-.06-3-25.712A30.815,30.815,0,0,0,1389.37,488.681ZM1359.953,516.6a31.731,31.731,0,0,0,15.118,5.875c-2.591-3.02-5.154-6.167-6.488-9.933a18.516,18.516,0,0,0-3.773-.42,15.914,15.914,0,0,0-2.269.126A31.121,31.121,0,0,1,1359.953,516.6Zm-2.892-2.544a25.946,25.946,0,0,0,1.973,1.817,29.758,29.758,0,0,0,2.078-3.383A13.621,13.621,0,0,0,1357.061,514.058Zm42.9.739a9.869,9.869,0,0,0,7.981-3.194q.509-6.028.458-11.729a21.057,21.057,0,0,0-8.294-7.917,29.841,29.841,0,0,0-2.975-1.364Zm9.116-2.7q-.084.957-.181,1.922,1.62-1.072,3.151-2.243c-.068-.808-.163-1.612-.292-2.41-.049-.312-.1-.621-.162-.927a17.609,17.609,0,0,1-.919,1.6A15.24,15.24,0,0,1,1409.077,512.1Zm-92.4-23.909c-5.134,7.46-6.4,16.26-3.569,25.345,0-.077.007-.155.011-.232.425-7.719,5.3-16.137,13-18.7A33.5,33.5,0,0,1,1316.682,488.19Zm31.952,8.056c1.183,5.709,3.016,11.155,6.568,15.69q.5.642,1.04,1.244a14.96,14.96,0,0,1,5.524-2.005,28.761,28.761,0,0,0,2.071-18.813l-1.7.484C1357.659,494.118,1353.141,495.4,1348.634,496.246Zm16.018,14.7h.167a19.671,19.671,0,0,1,3.369.32c-2.353-8.785,3.08-17.475,10.5-22.332a105.587,105.587,0,0,0-13.733,3.108,29.919,29.919,0,0,1-1.845,18.966Q1363.87,510.949,1364.652,510.949Zm47.739-4.34q.312,1.255.523,2.573c.093.576.169,1.154.23,1.735,8.928-7.193,15.266-16.865,17.333-27.175,2.722-13.586-1.326-29.183-11.4-43.919a97.858,97.858,0,0,0-77.1-41.913c-7.939-.194-27.42.82-36.812,14.522-4.279,6.243-5.441,14.247-3.268,22.538a35.8,35.8,0,0,0,4.453,10.131,37.3,37.3,0,0,1,4.74-9.171c6.336-8.918,16.119-14.141,25.518-13.642a22.1,22.1,0,0,1,13.478,5.654,33.927,33.927,0,0,1,12.642-.189,45.891,45.891,0,0,1,21.63,10.655c9.971,8.47,17.4,20.438,21.472,34.611a95.7,95.7,0,0,1,3.286,17.625,16.22,16.22,0,0,1,2.389,2.988A15.065,15.065,0,0,1,1412.391,506.609Zm-2.817-4.519q-.039,3.91-.334,7.964c.154-.212.3-.43.45-.655a16.142,16.142,0,0,0,1.474-2.858A26.6,26.6,0,0,0,1409.574,502.09Zm0-2.546a26.141,26.141,0,0,1,2.231,5.01,13.5,13.5,0,0,0-1.3-10.309,15.445,15.445,0,0,0-1.232-1.725Q1409.53,495.976,1409.571,499.545Zm-12.592-10.268a31.2,31.2,0,0,1,3.675,1.643,22.015,22.015,0,0,1,7.705,6.748q-.092-3.319-.381-6.537a20.073,20.073,0,0,0-11.376-5.077Zm-59.261,6.8a46.02,46.02,0,0,0,9.536-.75c-.586-3.063-1.008-6.182-1.425-9.267-.474-3.5-.955-7.057-1.677-10.516-.218-.029-.438-.056-.659-.081a27.617,27.617,0,0,0-20.743,6.047,35.563,35.563,0,0,0-5.382,5.721,31.907,31.907,0,0,0,10.538,6.89q.716-.145,1.458-.224A13.126,13.126,0,0,1,1337.718,496.077Zm-7.124-1.065a29.384,29.384,0,0,0,4.1.82A11.552,11.552,0,0,0,1330.594,495.013Zm14.8-19.275c.679,3.355,1.143,6.782,1.6,10.166.416,3.068.835,6.171,1.418,9.213,4.4-.839,8.865-2.11,13.4-3.4l1.714-.487a21.8,21.8,0,0,0-3.374-6.764A23.158,23.158,0,0,0,1345.39,475.738Zm-.261-1.234a24.415,24.415,0,0,1,15.962,9.261,22.864,22.864,0,0,1,3.557,7.15,93.155,93.155,0,0,1,16.6-3.459,25.161,25.161,0,0,1,2.443-1.08,29.036,29.036,0,0,1,3.147-.995,41.452,41.452,0,0,0-12.068-15.85l-.3-.234c-2.592.5-5.3,1.135-8.052,1.782-7.4,1.744-14.975,3.526-21.411,2.9C1345.052,474.151,1345.091,474.327,1345.13,474.5Zm51.32,10.236a22.307,22.307,0,0,1,11.367,4.736,94.155,94.155,0,0,0-3.119-16.134c-4.012-13.95-11.309-25.721-21.1-34.041a44.731,44.731,0,0,0-21.069-10.393,32.839,32.839,0,0,0-11.412.026,18.493,18.493,0,0,1,5.515,12.493c.1,6.167-3.257,12.2-8.573,16.058a54.155,54.155,0,0,1,26.718,10.561c8.274-1.537,15.39-1.574,19.014,4.093,1.453,2.273,1.775,5.027,2.06,7.457Zm-7.515,2.707a32.231,32.231,0,0,1,6.813,1.4l-.341-2.92a26.8,26.8,0,0,0-6.925.342C1388.638,486.661,1388.788,487.052,1388.935,487.446Zm-3.677-.175q1.2,0,2.39.073c-.106-.279-.218-.559-.329-.836a24.767,24.767,0,0,0-2.667.767C1384.854,487.272,1385.056,487.271,1385.258,487.271Zm-80.019-26.746a38.452,38.452,0,0,0,8.662,22.988q1.315,1.57,2.644,2.91a35.845,35.845,0,0,1,5.441-5.8,28.764,28.764,0,0,1,21.638-6.322l.265.03c-.038-.169-.079-.339-.119-.509a16.412,16.412,0,0,1-7.319-2.855,17.2,17.2,0,0,1-6.14-9.262,33.949,33.949,0,0,1-9.983-2.777c-2.833.274-5.666.584-8.486.893C1309.649,460.059,1307.446,460.3,1305.239,460.525Zm70.769,8.494a42.779,42.779,0,0,1,11.991,16.1,25.763,25.763,0,0,1,7.254-.493l-.572-4.889c-.269-2.3-.574-4.915-1.882-6.961C1389.686,467.9,1383.419,467.747,1376.008,469.018Zm-31.286,3.742c6.323.735,13.965-1.065,21.432-2.824,2.4-.565,4.769-1.123,7.066-1.589-8.24-6.029-17.279-8.821-26.683-9.853a22.147,22.147,0,0,1-3.612,1.766,24.233,24.233,0,0,1-2.96.913A38.412,38.412,0,0,1,1344.721,472.761Zm-13.143-10.94a15.824,15.824,0,0,0,5.561,8.194,15.039,15.039,0,0,0,6.323,2.562,36.371,36.371,0,0,0-4.726-11.14A28.043,28.043,0,0,1,1331.578,461.821Zm-.364-1.205a26.979,26.979,0,0,0,6.778-.238,25.03,25.03,0,0,0-2.005-2.381q-2.663.018-5.346.15Q1330.889,459.441,1331.214,460.616Zm-8.366-1.924a32.249,32.249,0,0,0,7.115,1.787q-.284-1.09-.5-2.271C1327.26,458.329,1325.056,458.5,1322.849,458.691Zm-17.99-8.209a29.526,29.526,0,0,0-7.37,3.391,32.163,32.163,0,0,0-7.368,6.569c4.621-.136,9.276-.514,13.921-.975A41.549,41.549,0,0,1,1304.859,450.482ZM1337.577,458a25.9,25.9,0,0,1,1.687,2.135,23.1,23.1,0,0,0,3.243-.968,19.928,19.928,0,0,0,1.96-.869C1342.189,458.107,1339.889,458.014,1337.577,458Zm-31.449-7.87a40.278,40.278,0,0,0-.924,9.222c2.176-.222,4.347-.46,6.511-.7,2.194-.24,4.4-.481,6.6-.705a34.15,34.15,0,0,1-10.077-8.287C1307.53,449.791,1306.826,449.947,1306.128,450.127Zm3.459-.687a32.5,32.5,0,0,0,10.044,7.861q.447.22.9.426c2.912-.28,5.829-.522,8.734-.686q-.243-1.561-.384-3.272-.048-.558-.062-1.118A32.232,32.232,0,0,0,1309.587,449.44Zm27.209,7.375a91.4,91.4,0,0,1,9.454.46c5.594-3.586,9.3-9.737,9.206-15.829a17.482,17.482,0,0,0-5.707-12.231,27.572,27.572,0,0,0-9.779,4.3,23.364,23.364,0,0,0-9.988,18.438,28.424,28.424,0,0,1,6.492,4.86Zm-6.776-3.5c.007.12.016.239.026.358q.144,1.737.393,3.307,2.187-.107,4.365-.147A27.475,27.475,0,0,0,1330.02,453.314Zm-15.922-5.352a33.333,33.333,0,0,1,14.724,3.388,24.642,24.642,0,0,1,10.468-18.79,28.575,28.575,0,0,1,9.392-4.291,20.891,20.891,0,0,0-12.142-4.809c-9.01-.5-18.394,4.556-24.5,13.149a36.358,36.358,0,0,0-4.878,9.72q.739,1.063,1.548,2.066A33.584,33.584,0,0,1,1314.1,447.962Zm-7.367-.226q-.16.554-.3,1.113c.325-.076.652-.149.978-.215C1307.179,448.339,1306.953,448.039,1306.731,447.737Z" transform="translate(-827.08 -230.801)"/>
    </g>
    <g id="Group_239" data-name="Group 239" transform="translate(408.946 335.699)">
      <g id="Group_231" data-name="Group 231" transform="translate(23.397 210.501)">
        <g id="Group_228" data-name="Group 228" transform="translate(0 9.533)">
          <g id="Group_227" data-name="Group 227" transform="translate(0 193.703)">
            <path id="Path_16" data-name="Path 16" d="M601.7,1651.842l-3.649,31.322h38.357l7.506-37.806Z" transform="translate(-598.048 -1645.357)"/>
            <rect id="Rectangle_1223" data-name="Rectangle 1223" width="14.666" height="1.467" transform="translate(12.448 14.901)" fill="#fff"/>
          </g>
          <path id="Path_17" data-name="Path 17" d="M653.663,1120.706l-.836,14.064-10.574,177-.323,5.456h-35.2l-.631-172.673-.1-27.512,38.688,2.977Z" transform="translate(-603.084 -1117.04)" fill="#ff5970"/>
          <rect id="Rectangle_1224" data-name="Rectangle 1224" width="1.467" height="13.521" transform="matrix(0.217, -0.976, 0.976, 0.217, 2.756, 114.727)"/>
        </g>
        <g id="Group_230" data-name="Group 230" transform="translate(23.165)">
          <g id="Group_229" data-name="Group 229" transform="translate(14.454 199.209)">
            <path id="Path_18" data-name="Path 18" d="M703.156,1644.886l-.489,31.531h66.484L745.2,1656.863l1.222-11.977-20.776-10.51Z" transform="translate(-701.928 -1634.376)"/>
            <rect id="Rectangle_1225" data-name="Rectangle 1225" width="31.917" height="1.467" transform="translate(0 42.03) rotate(-89.105)" fill="#fff"/>
            <rect id="Rectangle_1226" data-name="Rectangle 1226" width="16.444" height="1.467" transform="matrix(0.892, -0.452, 0.452, 0.892, 28.269, 29.268)" fill="#fff"/>
          </g>
          <path id="Path_19" data-name="Path 19" d="M764.129,1099.106l-16.865,201.652H704v-.382l.073-5.03,2.449-175.283.235-16.513.176-12.51,43.85,6.189Z" transform="translate(-688.319 -1091.04)" fill="#ff5970"/>
          <path id="Path_20" data-name="Path 20" d="M677.645,1382.544l-1.467-.02,2.193-153.876-17.14-7.141.564-1.355,18.057,7.525Z" transform="translate(-661.231 -1172.815)"/>
          <rect id="Rectangle_1227" data-name="Rectangle 1227" width="16.199" height="1.467" transform="translate(50.079 125.015) rotate(-5.208)"/>
        </g>
        <path id="Path_21" data-name="Path 21" d="M699.611,1108.507l-46.783,9.8-8.374,1.76-38.351,8.022-.1-27.513,38.688,2.977.176-12.51,43.85,6.189Z" transform="translate(-603.084 -1091.04)" opacity="0.2"/>
      </g>
      <g id="Group_232" data-name="Group 232" transform="translate(52.106 66.194)">
        <path id="Path_22" data-name="Path 22" d="M722.5,772.2l.031,1.041L723,786.946l.251,7.354-20.211,1.568.02-16.932-2.232-6.752,6.313-5.671Z" transform="translate(-691.851 -741.191)" fill="#ff8f78"/>
        <path id="Path_23" data-name="Path 23" d="M737.657,782.469l.464,13.706c-4.161-1.148-8.6-3.691-13.416-7.984l8.958-7.107Z" transform="translate(-706.977 -750.42)"/>
        <path id="Path_24" data-name="Path 24" d="M732.3,727.295s7.258,21.336,3.349,24.92-21.021,1.85-21.021,1.85l-5.834-10.19,3.773-16.676Z" transform="translate(-696.898 -716.291)" fill="#ff8f78"/>
        <path id="Path_25" data-name="Path 25" d="M697.306,719.266c.273-4.147,1.7-7.444,5.928-8.688,0,0,10.069,4.476,13.536-.722,6.166-9.246-6.822-16.676-12.552-9.588-10.663-3.433-20.928,1.117-22.122,9.15-9.327,6.118-7.148,16.35,5.461,25.78,1.635-6.041,4.758-9.981,9.32-11.393Z" transform="translate(-676.351 -697.449)"/>
        <path id="Path_26" data-name="Path 26" d="M774.92,748.078s6.526,3.545,5.029,6.016c-1.11,1.832-6.178,1.591-6.178,1.591Z" transform="translate(-738.054 -729.515)" fill="#ff8f78"/>
        <path id="Path_27" data-name="Path 27" d="M728.449,752.73a4.011,4.011,0,1,1-5.8-.938A4.159,4.159,0,0,1,728.449,752.73Z" transform="translate(-704.741 -731.363)" fill="#ff8f78"/>
        <path id="Path_28" data-name="Path 28" d="M731.111,760.366c-1.05-1.98-2.1-2.089-2.809-2.008l-.089-.727c1.439-.18,2.6.606,3.545,2.392Z" transform="translate(-709.198 -735.55)"/>
        <circle id="Ellipse_1" data-name="Ellipse 1" cx="4.125" cy="4.125" r="4.125" transform="translate(26.911 22.751)" fill="#ff5970" opacity="0.4"/>
      </g>
      <g id="Group_238" data-name="Group 238">
        <path id="Path_29" data-name="Path 29" d="M681.147,833.691a208.493,208.493,0,0,0-82.379-1.391,9.438,9.438,0,0,0-7.706,8.464l-8.2,92.786a11.126,11.126,0,0,0,11.178,12.106l89.51-.765a11.127,11.127,0,0,0,10.931-12.618Z" transform="translate(-565.007 -714.482)" fill="#599bff"/>
        <path id="Path_30" data-name="Path 30" d="M567.993,838.248l-2.677.62A21.725,21.725,0,0,0,549.181,854.6l-14.478,56a14.8,14.8,0,0,0,2.014,11.913h0a14.8,14.8,0,0,0,17.676,5.583l8.717-3.39Z" transform="translate(-534.233 -720.431)" fill="#599bff"/>
        <g id="Group_233" data-name="Group 233" transform="translate(93.775)">
          <path id="Path_31" data-name="Path 31" d="M1010.5,527.839c-2.106-8.422-15.091-7.019-15.091-7.019s-.7-2.456-4.563-3.86-5.241,25.208-5.241,25.208l-2.5,10.806,23.52,10.622C1009.336,546.349,1011.323,531.145,1010.5,527.839Z" transform="translate(-912.301 -516.906)" fill="#ff8f78"/>
          <path id="Path_32" data-name="Path 32" d="M860.8,615.281l-12.869,47.194L790,697.672l16.073,38.469,62.224-47.47a19.1,19.1,0,0,0,7.209-11.739c2-10.893,5.843-32.181,8.812-51.028Z" transform="translate(-790 -579.212)" fill="#599bff"/>
          <path id="Path_33" data-name="Path 33" d="M983.1,615.281l24.529,2.463-1.008,8.159Z" transform="translate(-912.301 -579.212)" fill="#cc7260"/>
        </g>
        <g id="Group_236" data-name="Group 236" transform="translate(0 36.068)">
          <g id="Group_235" data-name="Group 235" clip-path="url(#clip-path)">
            <g id="Group_234" data-name="Group 234" transform="translate(-18.71 44.147)">
              <path id="Path_34" data-name="Path 34" d="M821.966,769.652a14.573,14.573,0,0,1-9.2-3.062,12.629,12.629,0,0,1-4.431-8.666,10.574,10.574,0,0,1,2.464-7.985l.824.73a9.479,9.479,0,0,0-2.191,7.165,11.51,11.51,0,0,0,4.028,7.9c4.2,3.413,10.861,3.767,16.193.861,4.685-2.554,8.4-7.331,10.449-13.452,1.917-5.713,2.226-11.765,2.276-17.454l1.1.01c-.05,5.779-.367,11.936-2.333,17.793-2.141,6.385-6.035,11.38-10.964,14.068A17.24,17.24,0,0,1,821.966,769.652Z" transform="translate(-689.102 -735.691)" fill="#fff"/>
              <path id="Path_35" data-name="Path 35" d="M982.532,802.411a18.684,18.684,0,0,1,22.172-27.5l-.374,1.034a17.584,17.584,0,0,0-20.865,25.878Z" transform="translate(-797.72 -759.874)" fill="#fff"/>
              <path id="Path_36" data-name="Path 36" d="M519.966,1043.668a21.081,21.081,0,0,0-35.973-11.283l-.79-.765a22.181,22.181,0,0,1,37.849,11.873Z" transform="translate(-483.203 -918.865)" fill="#fff"/>
              <path id="Path_37" data-name="Path 37" d="M528.968,1095.4l-1.005-.446c2.044-4.6,3.754-9.713,5.564-15.131,5.235-15.671,10.648-31.875,24.794-36.522,12.354-4.056,25.846-1.147,38.586,2.6q1.819.535,3.646,1.084c11.16,3.339,22.7,6.792,34.248,5.548,12.325-1.326,25.628-10.313,26.559-23.057l1.1.08c-.753,10.314-10.661,22.255-27.539,24.071-11.766,1.263-23.416-2.217-34.681-5.588q-1.824-.546-3.642-1.084c-12.569-3.7-25.862-6.58-37.931-2.613-13.622,4.476-18.946,20.413-24.094,35.825C532.751,1085.615,531.034,1090.758,528.968,1095.4Z" transform="translate(-511.552 -921.765)" fill="#fff"/>
              <path id="Path_38" data-name="Path 38" d="M557.823,836.277a23.487,23.487,0,0,1-14.561-4.891l.683-.862A22.26,22.26,0,0,0,578.673,805.4l1.032-.38a24.056,24.056,0,0,1-8.231,26.993A23.334,23.334,0,0,1,557.823,836.277Z" transform="translate(-521.242 -779.602)" fill="#fff"/>
            </g>
          </g>
        </g>
        <g id="Group_237" data-name="Group 237" transform="translate(18.063 82.642)">
          <rect id="Rectangle_1228" data-name="Rectangle 1228" width="37.487" height="1.467" transform="matrix(0.09, -0.996, 0.996, 0.09, 0, 125.395)"/>
          <rect id="Rectangle_1229" data-name="Rectangle 1229" width="15.378" height="1.466" transform="translate(91.314 73.724) rotate(-39.927)"/>
          <rect id="Rectangle_1230" data-name="Rectangle 1230" width="1.467" height="8.239" transform="matrix(0.534, -0.845, 0.845, 0.534, 133.249, 1.24)"/>
        </g>
      </g>
    </g>
    <g id="Group_241" data-name="Group 241" transform="translate(706.948 248.96)">
      <g id="Group_240" data-name="Group 240" transform="translate(0 0)">
        <path id="Path_40" data-name="Path 40" d="M1446.729,335.4a42.093,42.093,0,0,0-8.332-22.957l8.9-10.72-14.9-12.365-8.891,10.713a41.838,41.838,0,0,0-23.42-4.094l-4.748-13.082-18.2,6.605,4.748,13.082a41.84,41.84,0,0,0-15.343,18.162l-13.692-2.517-3.5,19.043,13.7,2.518a42.086,42.086,0,0,0,8.332,22.957l-8.9,10.72,14.9,12.365,8.891-10.713a41.839,41.839,0,0,0,23.419,4.094l4.748,13.082,18.2-6.605L1427.9,372.6a41.837,41.837,0,0,0,15.342-18.162l13.693,2.517,3.5-19.042Zm-34.215,23.2a22.346,22.346,0,1,1,13.382-28.629A22.346,22.346,0,0,1,1412.514,358.6Z" transform="translate(-1348.498 -281.951)" fill="#d2d2d2"/>
        <path id="Path_41" data-name="Path 41" d="M1412.53,391.606l-4.8-13.23A42.441,42.441,0,0,1,1385,374.4l-8.992,10.834-16.027-13.3,9-10.843a42.819,42.819,0,0,1-8.1-22.313l-13.858-2.547,3.765-20.485,13.848,2.545a42.475,42.475,0,0,1,14.89-17.627l-4.8-13.23,19.579-7.106,4.8,13.231a42.454,42.454,0,0,1,22.731,3.974l8.991-10.834,16.026,13.3-9,10.842a42.843,42.843,0,0,1,8.1,22.314l13.858,2.547-3.763,20.485-13.848-2.544a42.467,42.467,0,0,1-14.89,17.627l4.8,13.229Zm-3.817-14.817,4.7,12.938,16.821-6.1-4.695-12.938.484-.318a41,41,0,0,0,15.073-17.844l.233-.531,13.543,2.489,3.234-17.6-13.55-2.491-.03-.578a41.331,41.331,0,0,0-8.186-22.556l-.347-.463,8.8-10.6-13.769-11.429-8.794,10.594-.518-.258a41.026,41.026,0,0,0-23.01-4.022l-.576.067-4.7-12.938-16.821,6.1,4.7,12.938-.485.318a41.013,41.013,0,0,0-15.073,17.844l-.233.531-13.542-2.49-3.234,17.6,13.549,2.491.031.578a41.362,41.362,0,0,0,8.186,22.556l.348.462-8.8,10.6,13.77,11.429,8.793-10.594.52.258a41.054,41.054,0,0,0,23.009,4.023Zm-5.273-17.741a23.081,23.081,0,1,1,7.851-1.386h0A23,23,0,0,1,1403.44,359.048Zm-.011-44.706a21.618,21.618,0,1,0,7.361,41.941h0a21.623,21.623,0,0,0-7.361-41.941Z" transform="translate(-1347.023 -280.328)"/>
      </g>
    </g>
    <g id="Group_249" data-name="Group 249" transform="translate(615.095 500.368)">
      <g id="Group_243" data-name="Group 243" transform="translate(0 114.1)">
        <rect id="Rectangle_1231" data-name="Rectangle 1231" width="1.467" height="162.333" transform="translate(74.856)"/>
        <path id="Path_42" data-name="Path 42" d="M1281.681,1727.732H1224A11.733,11.733,0,0,1,1235.728,1716h34.22a11.733,11.733,0,0,1,11.732,11.733Z" transform="translate(-1177.249 -1555.133)"/>
        <g id="Group_242" data-name="Group 242">
          <rect id="Rectangle_1232" data-name="Rectangle 1232" width="151.178" height="5.866"/>
        </g>
      </g>
      <g id="Group_248" data-name="Group 248" transform="translate(13.372)">
        <g id="Group_244" data-name="Group 244" transform="translate(47.711 67.698)">
          <rect id="Rectangle_1233" data-name="Rectangle 1233" width="26.741" height="45.881" transform="translate(0.733 0.733)" fill="#fff"/>
          <path id="Path_43" data-name="Path 43" d="M1291.3,1198.026H1263.1V1150.68H1291.3Zm-26.741-1.466h25.275v-44.414h-25.275Z" transform="translate(-1263.096 -1150.68)"/>
        </g>
        <g id="Group_245" data-name="Group 245">
          <rect id="Rectangle_1234" data-name="Rectangle 1234" width="122.162" height="86.133" rx="8" transform="translate(0.733 0.733)" fill="#fff"/>
          <path id="Path_44" data-name="Path 44" d="M1247.9,1053.636H1141.667a8.71,8.71,0,0,1-8.7-8.7v-70.2a8.71,8.71,0,0,1,8.7-8.7H1247.9a8.71,8.71,0,0,1,8.7,8.7v70.2A8.71,8.71,0,0,1,1247.9,1053.636ZM1141.667,967.5a7.242,7.242,0,0,0-7.234,7.234v70.2a7.242,7.242,0,0,0,7.234,7.234H1247.9a7.242,7.242,0,0,0,7.234-7.234v-70.2a7.242,7.242,0,0,0-7.234-7.234Z" transform="translate(-1132.967 -966.037)"/>
        </g>
        <g id="Group_246" data-name="Group 246" transform="translate(34.621 104.571)">
          <path id="Path_45" data-name="Path 45" d="M1282.315,1262.258H1229.4a9.007,9.007,0,0,1,9.008-9.007h34.9a9.007,9.007,0,0,1,9.008,9.007Z" transform="translate(-1228.663 -1252.517)" fill="#fff"/>
          <path id="Path_46" data-name="Path 46" d="M1281.781,1261.723H1227.4v-.733a9.752,9.752,0,0,1,9.741-9.74h34.9a9.752,9.752,0,0,1,9.741,9.74Zm-52.886-1.466h51.388a8.285,8.285,0,0,0-8.242-7.54h-34.9A8.285,8.285,0,0,0,1228.895,1260.257Z" transform="translate(-1227.396 -1251.25)"/>
        </g>
        <g id="Group_247" data-name="Group 247" transform="translate(12.41 15.385)">
          <rect id="Rectangle_1235" data-name="Rectangle 1235" width="28.231" height="23.832" fill="#3b85f8"/>
          <rect id="Rectangle_1236" data-name="Rectangle 1236" width="54.811" height="23.832" transform="translate(43.997)" fill="#3b85f8"/>
          <rect id="Rectangle_1237" data-name="Rectangle 1237" width="98.753" height="23.832" transform="translate(0 32.998)" fill="#3b85f8"/>
        </g>
      </g>
    </g>
    <rect id="Rectangle_1238" data-name="Rectangle 1238" width="965.635" height="1.467" transform="translate(336.42 786.334)"/>
  </g>
</svg>