<svg width="1323" height="235" viewBox="0 0 1323 235" fill="none" xmlns="http://www.w3.org/2000/svg">
<path d="M239.499 96.803C236.516 89.8817 233.711 85.168 231.086 82.662C228.461 80.0367 224.702 78.4853 219.809 78.008V74.428C220.406 74.428 221.301 74.3683 222.494 74.249C223.568 74.1297 224.702 74.07 225.895 74.07C231.862 74.07 237.59 75.6213 243.079 78.724C248.568 81.7073 253.222 87.7337 257.041 96.803L287.65 168.94L298.211 144.417C303.223 132.842 312.829 109.989 327.03 75.86H335.622L284.249 195.79H281.027L239.499 96.803ZM352.877 114.5C350.577 114.5 348.577 113.55 346.877 111.65C345.277 109.75 344.477 107.5 344.477 104.9C344.477 102.8 345.077 101.15 346.277 99.95C347.577 98.75 349.277 98.15 351.377 98.15C353.677 98.15 355.627 99.1 357.227 101C358.927 102.9 359.777 105.15 359.777 107.75C359.777 109.85 359.127 111.5 357.827 112.7C356.627 113.9 354.977 114.5 352.877 114.5ZM347.177 141.5C347.177 136.4 346.477 132.65 345.077 130.25C343.677 127.75 340.877 126.5 336.677 126.5H333.677V123.5H347.177C350.877 123.5 353.627 124 355.427 125C357.327 125.9 358.677 127.6 359.477 130.1C360.277 132.6 360.677 136.4 360.677 141.5V194H347.177V141.5ZM387.091 141.5C387.091 136.4 386.391 132.65 384.991 130.25C383.591 127.75 380.791 126.5 376.591 126.5H373.591V123.5H387.091C390.791 123.5 393.591 124 395.491 125C397.491 126 398.941 127.5 399.841 129.5H400.591C402.691 127.4 405.391 125.65 408.691 124.25C412.091 122.75 415.891 122 420.091 122C427.591 122 433.691 124 438.391 128C443.191 132 445.591 139 445.591 149V194H432.091V149C432.091 142 430.491 136.9 427.291 133.7C424.191 130.4 420.291 128.75 415.591 128.75C410.291 128.75 405.291 131.4 400.591 136.7V194H387.091V141.5ZM492.383 195.5C485.183 195.5 479.083 193.9 474.083 190.7C469.183 187.4 465.483 183 462.983 177.5C460.583 171.9 459.383 165.65 459.383 158.75C459.383 151.85 460.583 145.65 462.983 140.15C465.483 134.55 469.183 130.15 474.083 126.95C479.083 123.65 485.183 122 492.383 122C503.383 122 510.633 123.75 514.133 127.25C515.833 128.95 516.883 131.05 517.283 133.55C517.683 135.95 517.883 140.35 517.883 146.75H514.883C514.483 140.55 512.533 135.9 509.033 132.8C505.533 129.6 500.983 128 495.383 128C488.183 128 482.733 130.85 479.033 136.55C475.433 142.25 473.633 149.65 473.633 158.75C473.633 167.85 475.433 175.25 479.033 180.95C482.733 186.65 488.183 189.5 495.383 189.5C500.483 189.5 504.683 188.55 507.983 186.65C511.283 184.65 514.333 181.6 517.133 177.5L520.133 179.75C516.833 185.35 512.933 189.4 508.433 191.9C503.933 194.3 498.583 195.5 492.383 195.5ZM561.893 195.5C555.093 195.5 549.343 193.9 544.643 190.7C539.943 187.4 536.393 183 533.993 177.5C531.593 171.9 530.393 165.65 530.393 158.75C530.393 151.95 531.593 145.75 533.993 140.15C536.393 134.55 539.843 130.15 544.343 126.95C548.943 123.65 554.293 122 560.393 122C570.493 122 577.993 124.85 582.893 130.55C587.893 136.15 590.393 144.3 590.393 155L590.093 161H544.643C544.643 169.4 546.443 176.25 550.043 181.55C553.643 186.85 558.593 189.5 564.893 189.5C569.593 189.5 573.543 188.5 576.743 186.5C580.043 184.5 583.093 181.5 585.893 177.5L588.893 179.75C585.593 185.25 581.743 189.25 577.343 191.75C572.943 194.25 567.793 195.5 561.893 195.5ZM576.143 155C576.143 146.2 574.843 139.5 572.243 134.9C569.643 130.3 565.693 128 560.393 128C557.393 128 554.693 129.2 552.293 131.6C549.893 133.9 547.993 137.1 546.593 141.2C545.293 145.3 544.643 149.9 544.643 155H576.143ZM655.099 83.02C640.182 83.02 632.724 89.8817 632.724 103.605H629.144V90.18C629.144 80.6333 634.216 75.86 644.359 75.86H727.594V83.02H687.319V194H671.209V83.02H655.099ZM762.623 195.5C755.823 195.5 750.073 193.9 745.373 190.7C740.673 187.4 737.123 183 734.723 177.5C732.323 171.9 731.123 165.65 731.123 158.75C731.123 151.95 732.323 145.75 734.723 140.15C737.123 134.55 740.573 130.15 745.073 126.95C749.673 123.65 755.023 122 761.123 122C771.223 122 778.723 124.85 783.623 130.55C788.623 136.15 791.123 144.3 791.123 155L790.823 161H745.373C745.373 169.4 747.173 176.25 750.773 181.55C754.373 186.85 759.323 189.5 765.623 189.5C770.323 189.5 774.273 188.5 777.473 186.5C780.773 184.5 783.823 181.5 786.623 177.5L789.623 179.75C786.323 185.25 782.473 189.25 778.073 191.75C773.673 194.25 768.523 195.5 762.623 195.5ZM776.873 155C776.873 146.2 775.573 139.5 772.973 134.9C770.373 130.3 766.423 128 761.123 128C758.123 128 755.423 129.2 753.023 131.6C750.623 133.9 748.723 137.1 747.323 141.2C746.023 145.3 745.373 149.9 745.373 155H776.873ZM832.865 195.5C825.665 195.5 819.565 193.9 814.565 190.7C809.665 187.4 805.965 183 803.465 177.5C801.065 171.9 799.865 165.65 799.865 158.75C799.865 151.85 801.065 145.65 803.465 140.15C805.965 134.55 809.665 130.15 814.565 126.95C819.565 123.65 825.665 122 832.865 122C843.865 122 851.115 123.75 854.615 127.25C856.315 128.95 857.365 131.05 857.765 133.55C858.165 135.95 858.365 140.35 858.365 146.75H855.365C854.965 140.55 853.015 135.9 849.515 132.8C846.015 129.6 841.465 128 835.865 128C828.665 128 823.215 130.85 819.515 136.55C815.915 142.25 814.115 149.65 814.115 158.75C814.115 167.85 815.915 175.25 819.515 180.95C823.215 186.65 828.665 189.5 835.865 189.5C840.965 189.5 845.165 188.55 848.465 186.65C851.765 184.65 854.815 181.6 857.615 177.5L860.615 179.75C857.315 185.35 853.415 189.4 848.915 191.9C844.415 194.3 839.065 195.5 832.865 195.5ZM871.925 113C871.925 107.9 871.225 104.15 869.825 101.75C868.425 99.25 865.625 98 861.425 98H858.425V95H871.925C875.625 95 878.375 95.5 880.175 96.5C882.075 97.4 883.425 99.1 884.225 101.6C885.025 104.1 885.425 107.9 885.425 113V129.5C887.525 127.4 890.225 125.65 893.525 124.25C896.925 122.75 900.725 122 904.925 122C912.425 122 918.525 124 923.225 128C928.025 132 930.425 139 930.425 149V194H916.925V149C916.925 142 915.325 136.9 912.125 133.7C909.025 130.4 905.125 128.75 900.425 128.75C895.125 128.75 890.125 131.4 885.425 136.7V194H871.925V113ZM949.07 141.5C949.07 136.4 948.37 132.65 946.97 130.25C945.57 127.75 942.77 126.5 938.57 126.5H935.57V123.5H949.07C952.77 123.5 955.57 124 957.47 125C959.47 126 960.92 127.5 961.82 129.5H962.57C964.67 127.4 967.37 125.65 970.67 124.25C974.07 122.75 977.87 122 982.07 122C989.57 122 995.67 124 1000.37 128C1005.17 132 1007.57 139 1007.57 149V194H994.07V149C994.07 142 992.47 136.9 989.27 133.7C986.17 130.4 982.27 128.75 977.57 128.75C972.27 128.75 967.27 131.4 962.57 136.7V194H949.07V141.5ZM1052.86 195.5C1046.06 195.5 1040.16 193.9 1035.16 190.7C1030.16 187.4 1026.36 182.95 1023.76 177.35C1021.16 171.75 1019.86 165.55 1019.86 158.75C1019.86 151.95 1021.16 145.75 1023.76 140.15C1026.36 134.55 1030.16 130.15 1035.16 126.95C1040.16 123.65 1046.06 122 1052.86 122C1059.66 122 1065.56 123.65 1070.56 126.95C1075.56 130.15 1079.36 134.55 1081.96 140.15C1084.56 145.75 1085.86 151.95 1085.86 158.75C1085.86 165.55 1084.56 171.75 1081.96 177.35C1079.36 182.95 1075.56 187.4 1070.56 190.7C1065.56 193.9 1059.66 195.5 1052.86 195.5ZM1052.86 189.5C1056.56 189.5 1059.81 188.15 1062.61 185.45C1065.51 182.75 1067.71 179.05 1069.21 174.35C1070.81 169.65 1071.61 164.45 1071.61 158.75C1071.61 153.05 1070.81 147.85 1069.21 143.15C1067.71 138.45 1065.51 134.75 1062.61 132.05C1059.81 129.35 1056.56 128 1052.86 128C1049.16 128 1045.86 129.35 1042.96 132.05C1040.16 134.75 1037.96 138.45 1036.36 143.15C1034.86 147.85 1034.11 153.05 1034.11 158.75C1034.11 164.45 1034.86 169.65 1036.36 174.35C1037.96 179.05 1040.16 182.75 1042.96 185.45C1045.86 188.15 1049.16 189.5 1052.86 189.5ZM1122.5 195.5C1111 195.5 1103.25 193.5 1099.25 189.5C1097.55 187.8 1096.5 185.9 1096.1 183.8C1095.7 181.6 1095.5 178.25 1095.5 173.75H1098.5C1099.4 178.75 1101.55 182.65 1104.95 185.45C1108.45 188.15 1113.3 189.5 1119.5 189.5C1125 189.5 1129.1 188.55 1131.8 186.65C1134.6 184.75 1136 182.2 1136 179C1136 176.1 1134.9 173.6 1132.7 171.5C1130.6 169.4 1127.2 167.4 1122.5 165.5L1113.5 161.75C1107.5 159.35 1103 156.55 1100 153.35C1097 150.15 1095.5 146.2 1095.5 141.5C1095.5 135.4 1097.8 130.65 1102.4 127.25C1107 123.75 1112.95 122 1120.25 122C1131.25 122 1138.75 124 1142.75 128C1144.45 129.7 1145.5 131.6 1145.9 133.7C1146.3 135.8 1146.5 139.15 1146.5 143.75H1143.5C1142.7 138.75 1140.6 134.9 1137.2 132.2C1133.8 129.4 1129.15 128 1123.25 128C1118.55 128 1114.85 129 1112.15 131C1109.55 132.9 1108.25 135.4 1108.25 138.5C1108.25 143.7 1112.25 147.95 1120.25 151.25L1129.25 155C1136.05 157.8 1141 160.8 1144.1 164C1147.2 167.1 1148.75 171.1 1148.75 176C1148.75 182.1 1146.3 186.9 1141.4 190.4C1136.5 193.8 1130.2 195.5 1122.5 195.5ZM1190.35 195.5C1183.55 195.5 1177.65 193.9 1172.65 190.7C1167.65 187.4 1163.85 182.95 1161.25 177.35C1158.65 171.75 1157.35 165.55 1157.35 158.75C1157.35 151.95 1158.65 145.75 1161.25 140.15C1163.85 134.55 1167.65 130.15 1172.65 126.95C1177.65 123.65 1183.55 122 1190.35 122C1197.15 122 1203.05 123.65 1208.05 126.95C1213.05 130.15 1216.85 134.55 1219.45 140.15C1222.05 145.75 1223.35 151.95 1223.35 158.75C1223.35 165.55 1222.05 171.75 1219.45 177.35C1216.85 182.95 1213.05 187.4 1208.05 190.7C1203.05 193.9 1197.15 195.5 1190.35 195.5ZM1190.35 189.5C1194.05 189.5 1197.3 188.15 1200.1 185.45C1203 182.75 1205.2 179.05 1206.7 174.35C1208.3 169.65 1209.1 164.45 1209.1 158.75C1209.1 153.05 1208.3 147.85 1206.7 143.15C1205.2 138.45 1203 134.75 1200.1 132.05C1197.3 129.35 1194.05 128 1190.35 128C1186.65 128 1183.35 129.35 1180.45 132.05C1177.65 134.75 1175.45 138.45 1173.85 143.15C1172.35 147.85 1171.6 153.05 1171.6 158.75C1171.6 164.45 1172.35 169.65 1173.85 174.35C1175.45 179.05 1177.65 182.75 1180.45 185.45C1183.35 188.15 1186.65 189.5 1190.35 189.5ZM1228.79 129.5V123.5H1239.29V119C1239.29 102 1248.04 93.5 1265.54 93.5C1271.84 93.5 1276.09 94.25 1278.29 95.75C1279.99 97.05 1281.74 99.3 1283.54 102.5L1279.04 106.25C1276.04 101.75 1271.29 99.5 1264.79 99.5C1256.79 99.5 1252.79 106 1252.79 119V123.5H1273.79V129.5H1252.79V194H1239.29V129.5H1228.79ZM1303.32 195.5C1297.72 195.5 1293.32 193.9 1290.12 190.7C1286.92 187.5 1285.32 182.6 1285.32 176V129.5H1274.82V123.5H1285.32V110L1292.82 101H1298.82V123.5H1316.82V129.5H1298.82V176C1298.82 185 1302.32 189.5 1309.32 189.5C1311.72 189.5 1313.72 189.25 1315.32 188.75C1317.02 188.25 1318.77 187.5 1320.57 186.5L1322.07 189.5C1319.77 191.2 1317.22 192.65 1314.42 193.85C1311.62 194.95 1307.92 195.5 1303.32 195.5Z" fill="white"/>
<path d="M86.271 98.9295L45.5928 2.60352C27.6944 34.1698 -6.28005 105.568 1.00948 138.631C8.29901 171.695 34.2029 189.072 46.2436 193.628L86.271 98.9295Z" fill="#FFFB0A"/>
<path d="M142.569 234.958L86.2705 98.9297L46.2432 193.629L142.569 234.958Z" fill="#FF9E05"/>
<path d="M86.2705 98.6039L129.227 0L166.976 89.8175C168.061 92.7463 170.946 102.639 173.81 118.78C176.674 134.921 173.701 154.143 171.857 161.736C169.514 175.274 151.356 215.974 142.569 234.632L86.2705 98.6039Z" fill="#FF4000"/>
</svg>
